<svg xmlns="http://www.w3.org/2000/svg" width="6.323" height="5.658" viewBox="0 0 6.323 5.658">
  <path id="wi-celsius" d="M9.75,10.244a1.059,1.059,0,0,1,.32-.774,1.087,1.087,0,0,1,1.541,0,1.095,1.095,0,0,1,0,1.548,1.032,1.032,0,0,1-.768.32A1.094,1.094,0,0,1,9.75,10.244Zm.532,0a.566.566,0,0,0,.163.405.574.574,0,1,0,0-.81A.556.556,0,0,0,10.282,10.244Zm2.351,2.672a2.067,2.067,0,0,0,.387,1.239,1.415,1.415,0,0,0,.562.453,1.92,1.92,0,0,0,.81.169,1.541,1.541,0,0,0,1.662-1.01.3.3,0,0,0-.036-.248.293.293,0,0,0-.2-.139.268.268,0,0,0-.242.042.311.311,0,0,0-.139.206.081.081,0,0,1-.006.03l-.012.042a.734.734,0,0,1-.272.272,1.411,1.411,0,0,1-.744.169,1.2,1.2,0,0,1-.5-.1.939.939,0,0,1-.514-.538,1.564,1.564,0,0,1-.1-.586V10.976A2.056,2.056,0,0,1,13.3,10.7a1.152,1.152,0,0,1,.272-.629,1.022,1.022,0,0,1,.834-.314,1.443,1.443,0,0,1,.744.163.733.733,0,0,1,.272.272c.006.012.006.03.012.048a.106.106,0,0,1,.006.036.288.288,0,0,0,.139.181.329.329,0,0,0,.242.03.314.314,0,0,0,.2-.139.282.282,0,0,0,.036-.242v-.006l-.048-.139a1.222,1.222,0,0,0-.169-.26,1.256,1.256,0,0,0-.272-.266,1.807,1.807,0,0,0-.5-.23A2.37,2.37,0,0,0,14.4,9.12a1.948,1.948,0,0,0-.816.163,1.3,1.3,0,0,0-.55.441,2.07,2.07,0,0,0-.393,1.251v1.94Z" transform="translate(-9.75 -9.12)" fill="#132948"/>
</svg>
