<svg xmlns="http://www.w3.org/2000/svg" width="10.18" height="22.09" viewBox="0 0 10.18 22.09">
  <path id="wi-thermometer" d="M9.91,19.56a5.024,5.024,0,0,1,.59-2.38,5.1,5.1,0,0,1,1.65-1.84V5.42A2.834,2.834,0,0,1,15,2.55a2.834,2.834,0,0,1,2.87,2.86v9.92a5.155,5.155,0,0,1,1.64,1.84,4.987,4.987,0,0,1,.58,2.38,5.055,5.055,0,0,1-.68,2.56,4.977,4.977,0,0,1-1.85,1.85,5.113,5.113,0,0,1-6.97-1.85A4.921,4.921,0,0,1,9.91,19.56Zm1.76,0a3.292,3.292,0,0,0,.98,2.39,3.2,3.2,0,0,0,2.36.99,3.353,3.353,0,0,0,1.61-6.33l-.28-.14a.278.278,0,0,1-.15-.29V5.42a1.073,1.073,0,0,0-.34-.81A1.212,1.212,0,0,0,15,4.29a1.2,1.2,0,0,0-.83.32,1.043,1.043,0,0,0-.34.81V16.16a.288.288,0,0,1-.14.29l-.27.14a3.185,3.185,0,0,0-1.29,1.23A3.355,3.355,0,0,0,11.67,19.56Zm.78,0a2.5,2.5,0,0,0,.73,1.82,2.367,2.367,0,0,0,1.76.75,2.578,2.578,0,0,0,2.55-2.56,2.437,2.437,0,0,0-.65-1.67,2.509,2.509,0,0,0-1.58-.85V9.69a.257.257,0,0,0-.1-.19.3.3,0,0,0-.22-.1.286.286,0,0,0-.21.08.3.3,0,0,0-.08.21v7.34a2.535,2.535,0,0,0-1.56.85A2.452,2.452,0,0,0,12.45,19.56Z" transform="translate(-9.91 -2.55)" fill="#132948"/>
</svg>
