<svg xmlns="http://www.w3.org/2000/svg" width="16.59" height="14.98" viewBox="0 0 16.59 14.98">
  <path id="wi-flood" d="M6.72,20.76c0-.05.01-.12.02-.21V15.79a3.278,3.278,0,0,0,1.15,1.19,3.123,3.123,0,0,0,3.23,0,3.2,3.2,0,0,0,1.15-1.19,3.2,3.2,0,0,0,1.15,1.19,3.123,3.123,0,0,0,3.23,0,3.2,3.2,0,0,0,1.15-1.19,3.361,3.361,0,0,0,1.15,1.19,3,3,0,0,0,1.6.45,3.033,3.033,0,0,0,1.61-.45,3.127,3.127,0,0,0,1.15-1.19v5.12a1.061,1.061,0,0,1-.9.9.249.249,0,0,0-.08.01.249.249,0,0,1-.08.01.225.225,0,0,1-.07-.01.249.249,0,0,0-.08-.01H7.94a.281.281,0,0,0-.08.01.225.225,0,0,1-.07.01.249.249,0,0,1-.08-.01.225.225,0,0,0-.07-.01.993.993,0,0,1-.58-.28,1.13,1.13,0,0,1-.32-.56C6.73,20.88,6.72,20.81,6.72,20.76ZM12.23,9.67a.607.607,0,0,1,.17-.42l2.21-2.22.03-.02c.01,0,.01,0,.01-.01s.01,0,.01-.01.01,0,.01-.01h.01c.01,0,.01,0,.01-.01s0-.01.01-.02h.02l.01-.01h.01l.01-.01h.01l.01-.01h.01c.01-.01.01-.01.02-.01h.01c0-.01.01-.01.02-.01s.01-.01.02-.01l.04-.02h.01c.01,0,.01,0,.01-.01h.07l.01-.01h.12c.01,0,.01,0,.02.01h.06c0,.01,0,.01.01.01h.02c.01.01.02.02.03.02l.02.01h.02l.01.01h.01l.01.01c.01,0,.01,0,.01.01h.04c.01.01.01.01.02.01s0,.02.01.02l.01.01h.02l.01.01L15.41,7l.01.01.02.02,2.22,2.22a.576.576,0,0,1,.18.42.58.58,0,0,1-1,.41L15.61,8.86v6.9a.544.544,0,0,1-.17.4.566.566,0,0,1-.41.17.607.607,0,0,1-.42-.17.523.523,0,0,1-.17-.4V8.86l-1.22,1.22a.576.576,0,0,1-.42.18.539.539,0,0,1-.41-.18A.6.6,0,0,1,12.23,9.67Z" transform="translate(-6.72 -6.85)" fill="#132948"/>
</svg>
