<svg xmlns="http://www.w3.org/2000/svg" width="20.37" height="11.034" viewBox="0 0 20.37 11.034">
  <path id="ic_group_add_24px" d="M6.79,9.244H4.244V6.7h-1.7V9.244H0v1.7H2.546v2.546h1.7V10.941H6.79Zm8.488.849a2.546,2.546,0,1,0-.772-4.974,4.188,4.188,0,0,1,.764,2.427,4.27,4.27,0,0,1-.764,2.427A2.538,2.538,0,0,0,15.278,10.093Zm-4.244,0A2.546,2.546,0,1,0,8.488,7.546,2.536,2.536,0,0,0,11.034,10.093Zm5.619,1.833a3.14,3.14,0,0,1,1.171,2.41v1.7H20.37v-1.7C20.37,13.029,18.359,12.223,16.653,11.926Zm-5.619-.136c-1.7,0-5.093.849-5.093,2.546v1.7H16.127v-1.7C16.127,12.639,12.731,11.79,11.034,11.79Z" transform="translate(0 -5)" fill="#fff"/>
</svg>
