<svg xmlns="http://www.w3.org/2000/svg" width="12" height="14" viewBox="0 0 12 14">
  <defs>
    <style>
      .cls-1 {
        fill: #132948;
      }
    </style>
  </defs>
  <path id="ic_pin_drop_24px" class="cls-1" d="M16.143,6.2C16.143,3.883,13.837,2,11,2S5.857,3.883,5.857,6.2C5.857,9.35,11,13.9,11,13.9S16.143,9.35,16.143,6.2Zm-6.857,0A1.586,1.586,0,0,1,11,4.8a1.586,1.586,0,0,1,1.714,1.4A1.58,1.58,0,0,1,11,7.6,1.586,1.586,0,0,1,9.286,6.2ZM5,14.6V16H17V14.6Z" transform="translate(-5 -2)"/>
</svg>
