<svg xmlns="http://www.w3.org/2000/svg" width="14" height="12" viewBox="0 0 14 12">
  <path id="ic_favorite_border_24px" d="M12.15,3A4.318,4.318,0,0,0,9,4.367,4.318,4.318,0,0,0,5.85,3,3.694,3.694,0,0,0,2,6.6c0,2.472,2.38,4.486,5.985,7.547L9,15l1.015-.863C13.62,11.083,16,9.069,16,6.6A3.694,3.694,0,0,0,12.15,3ZM9.07,13.169,9,13.234l-.07-.065C5.6,10.35,3.4,8.487,3.4,6.6A2.318,2.318,0,0,1,5.85,4.308a2.747,2.747,0,0,1,2.5,1.543H9.658A2.728,2.728,0,0,1,12.15,4.308,2.318,2.318,0,0,1,14.6,6.6C14.6,8.487,12.4,10.35,9.07,13.169Z" transform="translate(-2 -3)" fill="#fff"/>
</svg>
