<?xml version="1.0" encoding="utf-8"?>
<!-- Generator: Adobe Illustrator 22.1.0, SVG Export Plug-In . SVG Version: 6.00 Build 0)  -->
<svg version="1.1" id="圖層_1" xmlns="http://www.w3.org/2000/svg" xmlns:xlink="http://www.w3.org/1999/xlink" x="0px" y="0px"
	 viewBox="0 0 69 17.9" style="enable-background:new 0 0 69 17.9;" xml:space="preserve">
<style type="text/css">
	.st0{fill:#FFFFFF;}
</style>
<g>
	<path class="st0" d="M0,17.9L7.3,0l7.3,17.9H12l-0.5-1.4H3.2l-0.6,1.4H0z M4.1,14.2h6.4L7.3,6L4.1,14.2z"/>
	<path class="st0" d="M26.8,0c1.2,0,2.4,0.2,3.5,0.7c1.1,0.5,2,1.1,2.8,1.9c0.8,0.8,1.4,1.8,1.9,2.8c0.5,1.1,0.7,2.3,0.7,3.5
		c0,1.3-0.2,2.5-0.7,3.5c-0.5,1.1-1.2,2.1-2,2.9h2.7v2.5h-8.9h0c-1.2,0-2.4-0.2-3.5-0.7c-1.1-0.5-2-1.1-2.8-1.9
		c-0.8-0.8-1.4-1.8-1.9-2.8c-0.5-1.1-0.7-2.2-0.7-3.5s0.2-2.4,0.7-3.5c0.5-1.1,1.1-2,1.9-2.8c0.8-0.8,1.8-1.4,2.8-1.9
		C24.4,0.3,25.6,0,26.8,0z M26.9,15.4c0.9,0,1.7-0.2,2.5-0.5c0.8-0.3,1.4-0.8,2-1.4c0.6-0.6,1-1.3,1.4-2c0.3-0.8,0.5-1.6,0.5-2.5
		c0-0.9-0.2-1.7-0.5-2.5S32,5,31.4,4.4c-0.6-0.6-1.3-1-2.1-1.4c-0.8-0.3-1.6-0.5-2.5-0.5c-0.9,0-1.7,0.2-2.5,0.5
		c-0.8,0.3-1.5,0.8-2.1,1.4c-0.6,0.6-1,1.3-1.4,2.1S20.4,8.1,20.4,9c0,0.9,0.2,1.7,0.5,2.5c0.3,0.8,0.8,1.5,1.4,2.1s1.3,1,2.1,1.4
		C25.1,15.3,25.9,15.4,26.9,15.4L26.9,15.4z"/>
	<path class="st0" d="M48.5,0h2.6v12c0,0.8-0.2,1.6-0.5,2.3c-0.3,0.7-0.8,1.3-1.3,1.9c-0.6,0.5-1.2,0.9-1.9,1.3
		c-0.7,0.3-1.5,0.5-2.4,0.5c-0.8,0-1.6-0.2-2.3-0.5c-0.7-0.3-1.4-0.7-1.9-1.3c-0.5-0.5-1-1.2-1.3-1.9C39.2,13.6,39,12.8,39,12V0h2.6
		v12c0,0.5,0.1,0.9,0.3,1.3c0.2,0.4,0.4,0.8,0.7,1.1c0.3,0.3,0.7,0.6,1.1,0.7s0.9,0.3,1.3,0.3c0.5,0,0.9-0.1,1.4-0.3
		c0.4-0.2,0.8-0.4,1.1-0.7c0.3-0.3,0.6-0.7,0.7-1.1c0.2-0.4,0.3-0.9,0.3-1.3V0z"/>
	<path class="st0" d="M54.4,17.9L61.7,0L69,17.9h-2.7l-0.5-1.4h-8.2L57,17.9H54.4z M58.5,14.2h6.4L61.7,6L58.5,14.2z"/>
</g>
</svg>
