<?xml version="1.0" encoding="utf-8"?>
<!-- Generator: Adobe Illustrator 24.1.1, SVG Export Plug-In . SVG Version: 6.00 Build 0)  -->
<svg version="1.1" id="圖層_1" xmlns="http://www.w3.org/2000/svg" xmlns:xlink="http://www.w3.org/1999/xlink" x="0px" y="0px"
	 viewBox="0 0 500 300" style="enable-background:new 0 0 500 300;" xml:space="preserve">
<style type="text/css">
	.st0{fill:#132948;}
	.st1{fill:#FFFFFF;}
</style>
<g>
	<rect x="-11.5" y="-15.5" class="st0" width="528" height="342"/>
	<path d="M516-15v341H-11V-15H516 M517-16H-12v343h529V-16L517-16z"/>
</g>
<g>
	<path class="st1" d="M56,201l41-100.4l41,100.4H123l-3-7.9H74.1l-3.2,7.9H56z M79,180.2h35.9l-18-46L79,180.2z"/>
	<path class="st1" d="M209.8,100.7c6.9,0,13.5,1.3,19.6,4s11.4,6.2,16,10.8c4.5,4.5,8.1,9.8,10.8,16c2.6,6.1,4,12.7,4,19.6
		c0,7.1-1.4,13.8-4.1,19.9c-2.7,6.1-6.5,11.5-11.2,16.2h15.3v14.1h-50.2h-0.1c-6.9,0-13.5-1.3-19.5-4c-6.1-2.6-11.4-6.2-15.9-10.8
		c-4.5-4.5-8.1-9.8-10.8-15.9c-2.7-6.1-4-12.6-4-19.5c0-6.9,1.3-13.5,4-19.6c2.6-6.1,6.2-11.4,10.8-16c4.5-4.5,9.8-8.1,15.9-10.8
		S202.8,100.7,209.8,100.7z M210.2,187c4.9,0,9.6-1,13.9-2.9c4.3-1.9,8.1-4.5,11.4-7.8c3.2-3.3,5.8-7.1,7.7-11.4
		c1.9-4.3,2.8-9,2.8-13.9c0-5-0.9-9.7-2.8-14.1c-1.9-4.4-4.5-8.2-7.7-11.5c-3.3-3.3-7.1-5.9-11.5-7.7c-4.4-1.9-9.1-2.8-14.1-2.8
		c-4.9,0-9.6,0.9-14,2.8c-4.4,1.9-8.2,4.5-11.5,7.7c-3.3,3.3-5.9,7.1-7.7,11.5c-1.9,4.4-2.8,9.1-2.8,14.1c0,4.9,0.9,9.6,2.8,14
		c1.9,4.4,4.5,8.2,7.7,11.5c3.3,3.3,7.1,5.9,11.5,7.7c4.4,1.9,9,2.8,14,2.8H210.2z"/>
	<path class="st1" d="M335,100.7h14.4v67.1c0,4.7-0.9,9-2.7,13c-1.8,4-4.2,7.5-7.3,10.5c-3.1,3-6.7,5.3-10.8,7.1s-8.5,2.6-13.3,2.6
		c-4.7,0-9-0.9-13.1-2.6s-7.6-4.1-10.7-7.1c-3.1-3-5.5-6.5-7.2-10.5c-1.7-4-2.6-8.4-2.6-13v-67.1h14.4v67.1c0,2.7,0.5,5.1,1.5,7.5
		c1,2.3,2.4,4.4,4.1,6.2c1.7,1.8,3.8,3.2,6.2,4.2c2.4,1,4.9,1.5,7.5,1.5c2.7,0,5.3-0.5,7.7-1.5c2.4-1,4.5-2.4,6.2-4.2
		c1.8-1.8,3.2-3.8,4.2-6.2c1-2.3,1.5-4.8,1.5-7.5V100.7z"/>
	<path class="st1" d="M371.1,201l41-100.4L453,201h-14.9l-3-7.9h-45.9L386,201H371.1z M394.1,180.2H430l-18-46L394.1,180.2z"/>
</g>
</svg>
